<?xml version="1.0" encoding="UTF-8" standalone="no"?>
<svg
   xmlns:dc="http://purl.org/dc/elements/1.1/"
   xmlns:cc="http://creativecommons.org/ns#"
   xmlns:rdf="http://www.w3.org/1999/02/22-rdf-syntax-ns#"
   xmlns:svg="http://www.w3.org/2000/svg"
   xmlns="http://www.w3.org/2000/svg"
   xmlns:sodipodi="http://sodipodi.sourceforge.net/DTD/sodipodi-0.dtd"
   xmlns:inkscape="http://www.inkscape.org/namespaces/inkscape"
   height="512pt"
   viewBox="0 0 512 512"
   width="512pt"
   version="1.1"
   id="svg18"
   sodipodi:docname="google-plus.svg"
   inkscape:version="0.92.5 (2060ec1f9f, 2020-04-08)">
  <metadata
     id="metadata24">
    <rdf:RDF>
      <cc:Work
         rdf:about="">
        <dc:format>image/svg+xml</dc:format>
        <dc:type
           rdf:resource="http://purl.org/dc/dcmitype/StillImage" />
        <dc:title></dc:title>
      </cc:Work>
    </rdf:RDF>
  </metadata>
  <defs
     id="defs22" />
  <sodipodi:namedview
     pagecolor="#ffffff"
     bordercolor="#666666"
     borderopacity="1"
     objecttolerance="10"
     gridtolerance="10"
     guidetolerance="10"
     inkscape:pageopacity="0"
     inkscape:pageshadow="2"
     inkscape:window-width="1920"
     inkscape:window-height="1021"
     id="namedview20"
     showgrid="false"
     inkscape:zoom="0.9777961"
     inkscape:cx="293.51634"
     inkscape:cy="368.38086"
     inkscape:window-x="-8"
     inkscape:window-y="-8"
     inkscape:window-maximized="1"
     inkscape:current-layer="svg18" />
  <path
     d="m502 50v412c0 22.089844-17.910156 40-40 40h-412c-22.089844 0-40-17.910156-40-40v-412c0-22.089844 17.910156-40 40-40h412c22.089844 0 40 17.910156 40 40zm0 0"
     fill="#f95d5d"
     id="path2" />
  <path
     d="m 449.90278,163.77427 v 41.22726 h -21.22725 v 20.61361 h -42.4545 v -20.61361 h -21.22725 v -41.22726 h 21.22725 v -20.61362 h 42.4545 v 20.61362 z m 0,0"
     id="path4"
     inkscape:connector-curvature="0"
     style="fill:#f0f0fa;stroke-width:1.04590929" />
  <path
     d="m 349.76758,259.9491 c 1.73183,8.47569 2.64686,17.24858 2.64686,26.23672 0,72.4533 -59.24927,131.18358 -132.34281,131.18358 -73.09356,0 -132.342814,-58.73028 -132.342814,-131.18358 0,-72.45331 59.249254,-131.18358 132.342814,-131.18358 36.53902,0 69.62472,14.68128 93.58083,38.42244 l -37.45405,37.12597 c -14.3871,-14.24571 -34.23852,-23.07499 -56.12678,-23.07499 -43.79203,0 -79.4057,35.30171 -79.4057,78.71016 0,43.40845 35.61367,78.71015 79.4057,78.71015 34.51252,0 63.94846,-21.93226 74.86674,-52.47344 H 220.07163 V 259.9491 Z m 0,0"
     id="path6"
     inkscape:connector-curvature="0"
     style="fill:#f0f0fa;stroke-width:1.3176192" />
  <path
     d="m386 53c0 5.523438-4.476562 10-10 10s-10-4.476562-10-10 4.476562-10 10-10 10 4.476562 10 10zm0 0"
     id="path8" />
  <path
     d="m 449.90278,163.77427 h -10.61363 v -10.30681 c 0,-5.69291 -4.75126,-10.30681 -10.61362,-10.30681 h -42.4545 c -5.86238,0 -10.61363,4.6139 -10.61363,10.30681 v 10.30681 h -10.61362 c -5.86237,0 -10.61363,4.61391 -10.61363,10.30681 v 41.22726 c 0,5.6929 4.75126,10.3068 10.61363,10.3068 h 10.61362 v 10.30681 c 0,5.69292 4.75125,10.30682 10.61363,10.30682 h 42.4545 c 5.86236,0 10.61362,-4.6139 10.61362,-10.30682 v -10.30681 h 10.61363 c 5.86237,0 10.61362,-4.6139 10.61362,-10.3068 v -41.22726 c 0,-5.6929 -4.75125,-10.30681 -10.61362,-10.30681 z m -10.61363,41.22725 h -10.61362 c -5.86237,0 -10.61363,4.61391 -10.61363,10.30682 v 10.3068 h -21.22725 v -10.3068 c 0,-5.69291 -4.75125,-10.30682 -10.61362,-10.30682 H 375.6074 v -20.61363 h 10.61363 c 5.86237,0 10.61362,-4.6139 10.61362,-10.30681 v -10.30681 h 21.22725 v 10.30681 c 0,5.69291 4.75126,10.30681 10.61363,10.30681 h 10.61362 z m 0,0"
     id="path10"
     inkscape:connector-curvature="0"
     style="stroke-width:1.04590929" />
  <path
     d="m462 0h-412c-27.570312 0-50 22.429688-50 50v412c0 27.570312 22.429688 50 50 50h412c27.570312 0 50-22.429688 50-50v-412c0-27.570312-22.429688-50-50-50zm30 462c0 16.542969-13.457031 30-30 30h-412c-16.542969 0-30-13.457031-30-30v-412c0-16.542969 13.457031-30 30-30h412c16.542969 0 30 13.457031 30 30zm0 0"
     id="path12" />
  <path
     d="m136 63h200c5.523438 0 10-4.476562 10-10s-4.476562-10-10-10h-200c-5.523438 0-10 4.476562-10 10s4.476562 10 10 10zm0 0"
     id="path14" />
  <path
     d="m 355.52984,241.32805 h -134.2178 c -7.56475,0 -13.69572,5.97488 -13.69572,13.34704 v 53.38818 c 0,7.37215 6.13097,13.33139 13.69572,13.33139 h 54.75602 c -12.72202,16.4857 -32.88036,26.70975 -54.75602,26.70975 -37.75947,0 -68.4785,-29.93702 -68.4785,-66.73523 0,-36.79821 30.71903,-66.73522 68.4785,-66.73522 18.24842,0 35.44294,6.94985 48.40572,19.57219 5.34451,5.20848 14.01132,5.20326 19.3612,-0.007 l 38.75989,-37.77318 c 5.34988,-5.20848 5.34988,-13.65987 0,-18.87356 -28.456,-27.73126 -66.28501,-43.00216 -106.52681,-43.00216 -83.06762,0 -150.652661,65.86453 -150.652661,146.8175 0,80.95295 67.585041,146.81749 150.652661,146.81749 83.06759,0 150.65264,-65.86454 150.65264,-146.81749 0,-9.8643 -1.01114,-19.73903 -3.01198,-29.34265 -1.29468,-6.22514 -6.90672,-10.69847 -13.42286,-10.69847 z M 221.31204,401.4926 c -67.96489,0 -123.261277,-53.88871 -123.261277,-120.12342 0,-66.2347 55.296387,-120.1234 123.261277,-120.1234 28.31155,0 55.17332,9.24386 76.94733,26.26134 l -19.54849,19.04562 c -16.49902,-12.0801 -36.44337,-18.61286 -57.39884,-18.61286 -52.8622,0 -95.86988,41.91284 -95.86988,93.4293 0,51.51646 43.00768,93.42931 95.86988,93.42931 40.51998,0 76.84033,-25.02569 90.38624,-62.27751 3.14572,-8.64951 -3.4293,-17.80475 -12.90928,-17.80475 h -63.78127 v -26.69409 h 108.81122 c 0.50288,4.42642 0.75433,8.88413 0.75433,13.34704 0,66.23471 -55.29638,120.12342 -123.26124,120.12342 z m 0,0"
     id="path16"
     inkscape:connector-curvature="0"
     style="stroke-width:1.35202444" />
</svg>
