<?xml version="1.0" encoding="UTF-8"?>
<!-- Created with Inkscape (http://www.inkscape.org/) -->
<svg width="38.555mm" height="9.9719mm" version="1.1" viewBox="0 0 38.555 9.9719" xmlns="http://www.w3.org/2000/svg" xmlns:cc="http://creativecommons.org/ns#" xmlns:dc="http://purl.org/dc/elements/1.1/" xmlns:rdf="http://www.w3.org/1999/02/22-rdf-syntax-ns#">
 <metadata>
  <rdf:RDF>
   <cc:Work rdf:about="">
    <dc:format>image/svg+xml</dc:format>
    <dc:type rdf:resource="http://purl.org/dc/dcmitype/StillImage"/>
    <dc:title/>
   </cc:Work>
  </rdf:RDF>
 </metadata>
 <g transform="translate(-90.535 -138.68)" fill="#fff">
  <g transform="scale(.96612 1.0351)" stroke-width=".12928" style="font-feature-settings:normal;font-variant-caps:normal;font-variant-ligatures:normal;font-variant-numeric:normal" aria-label="КОМП">
   <path d="m94.999 136.32h-0.43985v1.5128h-0.76275v-3.7019h0.76275v1.4823h0.34832l0.90513-1.4823h0.93056l-1.1416 1.7518 1.2611 1.9501h-0.91022z" style="font-feature-settings:normal;font-variant-caps:normal;font-variant-ligatures:normal;font-variant-numeric:normal"/>
   <path d="m100.12 136.07q0 0.54664-0.19323 0.95853-0.19323 0.41188-0.55427 0.63562-0.35849 0.22374-0.82377 0.22374-0.46019 0-0.82123-0.2212-0.36104-0.22119-0.55935-0.63054-0.19832-0.41188-0.20086-0.94581v-0.18306q0-0.54663 0.19577-0.96106 0.19832-0.41697 0.55681-0.63817 0.36104-0.22374 0.82377-0.22374 0.46274 0 0.82123 0.22374 0.36104 0.2212 0.55681 0.63817 0.19831 0.41443 0.19831 0.95852zm-0.77292-0.1678q0-0.58223-0.20848-0.88479t-0.59494-0.30256q-0.38392 0-0.5924 0.30002-0.20848 0.29747-0.21103 0.87462v0.18051q0 0.56698 0.20848 0.87971 0.20849 0.31273 0.60003 0.31273 0.38392 0 0.58986-0.30002 0.20594-0.30256 0.20848-0.8797z" style="font-feature-settings:normal;font-variant-caps:normal;font-variant-ligatures:normal;font-variant-numeric:normal"/>
   <path d="m101.67 134.13 0.9509 2.6849 0.94581-2.6849h1.0017v3.7019h-0.76529v-1.0119l0.0763-1.7467-0.99921 2.7586h-0.52375l-0.99666-2.7561 0.0763 1.7442v1.0119h-0.76275v-3.7019z" style="font-feature-settings:normal;font-variant-caps:normal;font-variant-ligatures:normal;font-variant-numeric:normal"/>
   <path d="m108.26 137.83h-0.76529v-3.084h-1.4823v3.084h-0.76275v-3.7019h3.0103z" style="font-feature-settings:normal;font-variant-caps:normal;font-variant-ligatures:normal;font-variant-numeric:normal"/>
  </g>
  <g transform="scale(1.0609 .94257)" stroke-width=".17403" style="font-feature-settings:normal;font-variant-caps:normal;font-variant-ligatures:normal;font-variant-numeric:normal" aria-label="РЕМОНТ">
   <path d="m86.423 155.09v1.6789h-0.98183v-4.7651h1.8589q0.53673 0 0.94256 0.19637 0.4091 0.19636 0.62837 0.55964 0.21928 0.36 0.21928 0.82146 0 0.70037-0.4811 1.1062-0.47782 0.40255-1.3255 0.40255zm0-0.79528h0.8771q0.38946 0 0.59237-0.18328 0.20618-0.18327 0.20618-0.52364 0-0.35019-0.20618-0.56619t-0.56946-0.22255h-0.90001z" style="font-feature-settings:normal;font-variant-caps:normal;font-variant-ligatures:normal;font-variant-numeric:normal"/>
   <path d="m92.628 154.7h-1.8851v1.2764h2.2124v0.78873h-3.1942v-4.7651h3.1877v0.79528h-2.2058v1.1356h1.8851z" style="font-feature-settings:normal;font-variant-caps:normal;font-variant-ligatures:normal;font-variant-numeric:normal"/>
   <path d="m94.814 152 1.224 3.456 1.2175-3.456h1.2895v4.7651h-0.9851v-1.3026l0.09818-2.2484-1.2862 3.5509h-0.67419l-1.2829-3.5477 0.09818 2.2451v1.3026h-0.98183v-4.7651z" style="font-feature-settings:normal;font-variant-caps:normal;font-variant-ligatures:normal;font-variant-numeric:normal"/>
   <path d="m103.32 154.49q0 0.70365-0.24873 1.2338-0.24873 0.53018-0.71346 0.81819-0.46146 0.288-1.0604 0.288-0.59237 0-1.0571-0.28473-0.46473-0.28473-0.72-0.81165-0.25528-0.53018-0.25855-1.2175v-0.23564q0-0.70365 0.252-1.2371 0.25528-0.53673 0.71674-0.82146 0.46473-0.288 1.0604-0.288t1.0571 0.288q0.46473 0.28473 0.71674 0.82146 0.25527 0.53346 0.25527 1.2338zm-0.99492-0.216q0-0.74946-0.26836-1.1389-0.26837-0.38946-0.76583-0.38946-0.49419 0-0.76255 0.38619-0.26837 0.38291-0.27164 1.1258v0.23236q0 0.72983 0.26836 1.1324 0.26837 0.40255 0.77238 0.40255 0.49418 0 0.75928-0.38619 0.26509-0.38945 0.26836-1.1324z" style="font-feature-settings:normal;font-variant-caps:normal;font-variant-ligatures:normal;font-variant-numeric:normal"/>
   <path d="m107.92 156.77h-0.98183v-2.0422h-1.9146v2.0422h-0.98183v-4.7651h0.98183v1.9309h1.9146v-1.9309h0.98183z" style="font-feature-settings:normal;font-variant-caps:normal;font-variant-ligatures:normal;font-variant-numeric:normal"/>
   <path d="m112.28 152.8h-1.4596v3.9699h-0.98183v-3.9699h-1.44v-0.79528h3.8815z" style="font-feature-settings:normal;font-variant-caps:normal;font-variant-ligatures:normal;font-variant-numeric:normal"/>
  </g>
  <g transform="matrix(.060821 0 0 .060821 78.243 133.35)">
   <path d="m764.09 199.67c0.27372-1.6895 0.40711-3.4254 0.40711-5.166 0-1.7312-0.13339-3.4463-0.40126-5.1254l8.8556-6.7005c2.0787-1.576 2.6527-4.4272 1.3342-6.6494l-5.7164-9.5469c-1.3293-2.2165-4.184-3.1672-6.6434-2.2117l-10.437 4.0555c-2.8498-2.2155-5.9419-3.9419-9.2147-5.1405l-1.5862-10.746c-0.37474-2.5268-2.6517-4.4329-5.3043-4.4329h-11.422c-2.6527 0-4.9295 1.9062-5.3043 4.4376l-1.5862 10.751c-3.2785 1.2146-6.4021 2.961-9.1714 5.1301l-10.485-4.0555c-2.4595-0.95072-5.3093 0-6.6385 2.2117l-5.7115 9.5469c-1.3283 2.2221-0.74948 5.0838 1.345 6.6541l8.8458 6.655c-0.2737 1.6895-0.4071 3.4254-0.4071 5.1661 0 1.7312 0.1334 3.4462 0.40124 5.1254l-8.8556 6.7004c-2.0788 1.576-2.6518 4.4272-1.3342 6.6494l5.7114 9.547c1.3283 2.2117 4.184 3.1624 6.6435 2.2117l10.437-4.0554c2.8499 2.2155 5.9411 3.9419 9.2147 5.1405l1.5862 10.746c0.37966 2.5267 2.6565 4.4329 5.3092 4.4329h11.422c2.6527 0 4.9296-1.9062 5.3043-4.4376l1.5862-10.751c3.2786-1.2147 6.4021-2.961 9.1715-5.1301l10.485 4.0554c2.4702 0.95545 5.3151 5e-3 6.6385-2.2117l5.7114-9.547c1.3283-2.2221 0.74946-5.0837-1.3449-6.6541zm-34.417 12.917c-10.341 0-18.752-8.1119-18.752-18.083 0-9.9707 8.4112-18.083 18.752-18.083 10.34 0 18.751 8.1119 18.751 18.083 0 9.9707-8.4112 18.083-18.751 18.083z" stroke-width=".24662"/>
   <path d="m787.96 111.16c-0.53988-0.8487-1.0276-1.725-1.687-2.5258-0.66015-0.80164-1.4259-1.4475-2.1561-2.1411l1.6892-7.084c0.37667-1.579-0.48409-3.1923-2.008-3.7657l-9.7605-3.6509c-1.5194-0.56796-3.2314 0.08207-3.9842 1.5199l-3.3681 6.4227c-2.0496 0.07657-4.0847 0.3323-6.0702 0.93238l-5.1967-4.9127c-1.1834-1.1122-3.0087-1.179-4.2622-0.1468l-8.0446 6.6247c-1.2535 1.0323-1.5434 2.841-0.67337 4.2112l3.8239 6.0432c-0.96972 1.8335-1.6118 3.7901-2.0793 5.7787l-6.9494 2.0738c-1.56 0.46683-2.5308 2.0169-2.2603 3.6225l1.7166 10.275c0.26583 1.6018 1.6833 2.7551 3.3107 2.693l7.2765-0.29919c0.53517 0.85412 1.0231 1.7288 1.6832 2.5304 0.65939 0.80073 1.425 1.4483 2.1544 2.1409l-1.6875 7.0842c-0.37758 1.5798 0.48242 3.1922 2.0063 3.7656l9.7605 3.6509c1.5202 0.56887 3.2314-0.0821 3.9842-1.5199l3.3644-6.4272c2.0496-0.0766 4.0848-0.33232 6.0702-0.93239l5.1967 4.9127c1.1879 1.1176 3.0124 1.1836 4.266 0.15135l8.0446-6.6247c1.2544-1.033 1.5442-2.8401 0.67338-4.2112l-3.8239-6.0432c0.96972-1.8335 1.6118-3.7901 2.08-5.7778l6.9487-2.0747c1.56-0.46682 2.5308-2.0169 2.2603-3.6225l-1.7166-10.275c-0.26584-1.6018-1.6834-2.7551-3.31-2.692zm-12.15 22.787c-5.4976 4.5273-13.617 3.7414-18.144-1.7554-4.5273-5.4976-3.7413-13.617 1.7563-18.145 5.4967-4.5265 13.616-3.7406 18.144 1.7571 4.5265 5.4967 3.7406 13.616-1.7561 18.143z" stroke-width=".3021"/>
   <path d="m722 126.77c-0.0351-0.75073-0.0262-1.5-0.15655-2.2639-0.13055-0.76482-0.38744-1.4678-0.60345-2.1885l3.7244-3.9666c0.83023-0.88411 0.87084-2.2496 0.0956-3.187l-4.974-5.9897c-0.77447-0.93217-2.1258-1.146-3.1475-0.49315l-4.5677 2.9147c-1.3575-0.71101-2.772-1.3005-4.2822-1.6483l-1.5464-5.1142c-0.35459-1.1604-1.5133-1.8812-2.7092-1.677l-7.675 1.3101c-1.196 0.20415-2.0551 1.2694-1.9996 2.4808l0.23678 5.3377c-1.3093 0.82907-2.4518 1.8595-3.4929 2.9754l-5.2759-1.2345c-1.1848-0.27624-2.3895 0.36842-2.81 1.5101l-2.7002 7.2996c-0.42206 1.1373 0.0691 2.4112 1.1473 2.9749l4.8293 2.5065c0.03 0.75243 0.0218 1.5007 0.15235 2.2655 0.13039 0.76387 0.38654 1.4679 0.60249 2.1878l-3.7234 3.9673c-0.83112 0.88426-0.87188 2.2489-0.0966 3.1863l4.974 5.9897c0.77463 0.93305 2.1258 1.1461 3.1475 0.49315l4.5669-2.919c1.3575 0.711 2.772 1.3005 4.2822 1.6483l1.5464 5.1142c0.35547 1.1656 1.514 1.8855 2.71 1.6814l7.675-1.3101c1.1968-0.20428 2.0553-1.2685 1.9996-2.4808l-0.23679-5.3377c1.3093-0.82901 2.4518-1.8595 3.4931-2.9746l5.2757 1.2336c1.1848 0.27631 2.3895-0.36842 2.81-1.5101l2.7002-7.2996c0.42206-1.1373-0.0691-2.4112-1.1472-2.974zm-16.335 10.267c-5.245 0.89529-10.218-2.6278-11.113-7.8719-0.8953-5.2451 2.6278-10.218 7.8728-11.114 5.2441-0.89514 10.217 2.6278 11.113 7.8729 0.89514 5.2441-2.6279 10.217-7.872 11.113z" stroke-width=".22571"/>
  </g>
  <path d="m105.12 138.73v4.0611h14.095v-4.0611zm0.71518 0.61962h12.717v2.8048h-12.717z"/>
  <g transform="matrix(.0051048 0 0 .0051048 109.85 139.85)">
   <g fill="#fff">
    <g fill="#fff">
     <path d="m293.6 110c-6.8-6-15.2-9.6-24.8-9.6h-57.6c-4.4 0-8.4-3.6-8.4-8.4v-57.6c0-9.6-4-18-10-24.4-6.4-6.4-14.8-10-24.4-10h-34c-9.6 0-18 4-24.4 10-6.4 6.4-10 14.8-10 24.4v57.6c0 4.4-3.6 8.4-8.4 8.4h-57.2c-9.6 0-18 4-24.4 10-6.4 6.4-10 14.8-10 24.4v34c0 9.6 4 18 10 24.4 6.4 6.4 14.8 10 24.4 10h57.6c4.4 0 8.4 3.6 8.4 8.4v57.6c0 9.6 4 18 10 24.4 6.4 6.4 14.8 10 24.4 10h34c9.6 0 18-4 24.4-10 6.4-6.4 10-14.8 10-24.4v-58c0-4.4 3.6-8.4 8.4-8.4h57.6c9.6 0 18-4 24.4-10 6.4-6.4 10-14.8 10-24.4v-34c0-9.6-4-18-10-24.4z" fill="#fff"/>
    </g>
   </g>
  </g>
  <g transform="matrix(.0039378 0 0 .0039378 107.02 139.94)">
   <g fill="#fff">
    <g fill="#fff">
     <path d="m211 27.6c-8.4-10-16.4-19.2-23.6-27.6-7.2 8.8-15.2 18-23.6 27.6-50.8 58.4-120.8 139.6-120.8 202.8 0 40 16 76 42.4 102 26 26 62 42.4 102 42.4s76-16 102-42.4c26-26 42.4-62.4 42.4-102 0-63.2-70-144-120.8-202.8z" fill="#fff"/>
    </g>
   </g>
  </g>
  <g transform="matrix(.0036825 0 0 .0036825 116.23 139.85)">
   <g id="XMLID_476_" fill="#fff">
    <path id="XMLID_503_" d="m440.5 173.1c5.858-5.857 5.858-15.355 0-21.213l-22.511-22.511c-5.091-5.091-13.084-5.846-19.038-1.8l-47.332 32.17 31.975-47.652c3.993-5.951 3.219-13.897-1.85-18.964l-48.83-48.83c-4.508-4.508-11.372-5.675-17.114-2.908l-8.443 4.065 4.043-8.97c2.563-5.685 1.341-12.361-3.068-16.771l-15.328-15.326c-5.857-5.857-15.355-5.857-21.213 0l-119.06 119.06 168.71 168.71z"/>
    <path id="XMLID_1199_" d="m130.56 145.62-34.466 34.466c-2.813 2.813-4.394 6.628-4.394 10.606s1.58 7.794 4.394 10.606l32.694 32.694c6.299 6.299 9.354 14.992 8.382 23.849-0.971 8.851-5.843 16.677-13.366 21.473-96.068 61.238-105.02 70.194-107.96 73.137-21.119 21.118-21.119 55.48 0 76.6 21.14 21.14 55.504 21.098 76.6 0 2.944-2.943 11.902-11.902 73.136-107.96 4.784-7.505 12.607-12.366 21.462-13.339 8.883-0.969 17.575 2.071 23.859 8.354l32.694 32.694c5.857 5.857 15.356 5.857 21.213 0l34.467-34.467zm-60.51 259.2c-8.28 8.28-21.704 8.28-29.983 0-8.28-8.28-8.28-21.704 0-29.983 8.28-8.28 21.704-8.28 29.983 0 8.28 8.279 8.28 21.703 0 29.983z"/>
   </g>
  </g>
  <g transform="matrix(.0049843 0 0 .0049843 113 139.83)">
   <g fill="#fff">
    <g fill="#fff">
     <g fill="#fff">
      <path d="m319.2 306.38-80.8-80.4 22.4-22.4c1.6-1.6 1.6-4.8 0-6.4l-112-112 11.2-11.2c3.2-3.2 3.2-8.4 0-11.6s-8.4-3.2-11.6 0l-86.8 86.4c-3.2 3.2-3.2 8.4 0 11.6s8.4 3.2 11.6 0l12.8-12.8 15.6 15.6 8-8c3.2-3.2 8.4-3.2 11.6 0s3.2 8.4 0 11.6l-8 7.6 21.2 21.2 8-8c3.2-3.2 8.4-3.2 11.6 0s3.2 8.4 0 11.6l-8 7.6 21.2 21.2 8-8c3.2-3.2 8.4-3.2 11.6 0s3.2 8.4 0 11.6l-8 7.6 18.8 18.8c1.6 1.6 4.4 1.6 6.4 0l22.4-22.4 80.8 80.8c3.2 3.2 8.4 3.2 11.6 0 3.6-1.6 3.6-6.8 0.4-10z"/>
      <path d="m109.6 77.976-50-50 11.2-11.2c3.2-3.2 3.2-8.4 0-11.6s-8.4-3.2-11.6 0l-56.8 56.4c-3.2 3.2-3.2 8.4 0 11.6s8.4 3.2 11.6 0l14.8-14.8 50 50z"/>
     </g>
    </g>
   </g>
  </g>
 </g>
</svg>
