<?xml version="1.0" encoding="UTF-8" standalone="no"?>
<svg
   xmlns:dc="http://purl.org/dc/elements/1.1/"
   xmlns:cc="http://creativecommons.org/ns#"
   xmlns:rdf="http://www.w3.org/1999/02/22-rdf-syntax-ns#"
   xmlns:svg="http://www.w3.org/2000/svg"
   xmlns="http://www.w3.org/2000/svg"
   xmlns:sodipodi="http://sodipodi.sourceforge.net/DTD/sodipodi-0.dtd"
   xmlns:inkscape="http://www.inkscape.org/namespaces/inkscape"
   inkscape:version="1.0 (4035a4fb49, 2020-05-01)"
   sodipodi:docname="instagram.svg"
   id="svg27"
   version="1.1"
   width="635.79626pt"
   viewBox="0 0 635.79626 635.79626"
   height="635.79626pt">
  <metadata
     id="metadata33">
    <rdf:RDF>
      <cc:Work
         rdf:about="">
        <dc:format>image/svg+xml</dc:format>
        <dc:type
           rdf:resource="http://purl.org/dc/dcmitype/StillImage" />
        <dc:title></dc:title>
      </cc:Work>
    </rdf:RDF>
  </metadata>
  <defs
     id="defs31" />
  <sodipodi:namedview
     inkscape:current-layer="svg27"
     inkscape:window-maximized="1"
     inkscape:window-y="-8"
     inkscape:window-x="-8"
     inkscape:cy="650.44325"
     inkscape:cx="87.269845"
     inkscape:zoom="0.4402154"
     fit-margin-bottom="0"
     fit-margin-right="0"
     fit-margin-left="0"
     fit-margin-top="0"
     inkscape:pagecheckerboard="true"
     showgrid="false"
     id="namedview29"
     inkscape:window-height="1017"
     inkscape:window-width="1920"
     inkscape:pageshadow="2"
     inkscape:pageopacity="0"
     guidetolerance="10"
     gridtolerance="10"
     objecttolerance="10"
     borderopacity="1"
     bordercolor="#666666"
     pagecolor="#ffffff" />
  <linearGradient
     gradientTransform="scale(1.2417896)"
     y2="0"
     y1="512"
     x2="256"
     x1="256"
     gradientUnits="userSpaceOnUse"
     id="a">
    <stop
       id="stop2"
       stop-color="#ffd600"
       offset="0" />
    <stop
       id="stop4"
       stop-color="#ff0095"
       offset=".5271" />
    <stop
       id="stop6"
       stop-color="#f2069c"
       offset=".5802" />
    <stop
       id="stop8"
       stop-color="#cf14b0"
       offset=".6791" />
    <stop
       id="stop10"
       stop-color="#962ccf"
       offset=".813" />
    <stop
       id="stop12"
       stop-color="#494dfa"
       offset=".9753" />
    <stop
       id="stop14"
       stop-color="#3f51ff"
       offset=".9951" />
  </linearGradient>
  <path
     style="fill:url(#a);stroke-width:1.24179"
     id="path17"
     fill="url(#a)"
     d="m 635.79628,317.89812 c 0,59.09174 -16.1287,114.42897 -44.21935,161.84497 -17.49177,29.50221 -39.6257,55.94843 -65.39769,78.3152 -53.3533,46.31003 -122.28232,75.14281 -197.88597,77.56819 -3.45372,0.11642 -6.91715,0.16979 -10.39513,0.16979 -3.47798,0 -6.94141,-0.0534 -10.39513,-0.16979 C 232.27288,633.21568 163.67369,604.66906 110.43196,558.77621 83.651019,535.69152 60.765224,508.20723 42.895096,477.46808 15.624231,430.57598 0,376.05367 0,317.89812 0,261.68775 14.586174,208.87773 40.183533,163.0625 80.085725,91.659593 146.7252,37.224582 226.549,13.324985 255.47397,4.656711 286.1452,0 317.89814,0 c 31.75295,0 62.42418,4.656711 91.34915,13.324985 79.29021,23.744375 145.58043,77.621549 185.56024,148.321095 26.09213,46.14024 40.98875,99.45958 40.98875,156.25204 z m 0,0" />
  <g
     transform="matrix(0.96655348,0,0,0.95540502,69.04406,84.327419)"
     id="g25"
     fill="#f1f1f1">
    <path
       id="path19"
       d="M 485.09766,141.63281 C 482.17187,73.492188 425.82031,18.960938 356.98437,18.960938 H 155.02734 c -68.859371,0 -125.210934,54.542968 -128.124996,122.691402 -0.08594,1.85157 -0.125,3.69922 -0.125,5.5586 v 201.94922 c 0,8.97265 0.929687,17.74218 2.695312,26.19531 20.875,39.55859 51.824219,72.98437 89.421874,96.87109 11.46094,3.375 23.59375,5.1836 36.13281,5.1836 h 201.95703 c 12.53907,0 24.66797,-1.8086 36.13282,-5.1836 37.58593,-23.88672 68.52343,-57.30078 89.41015,-96.83984 1.76563,-8.46484 2.69532,-17.24219 2.69532,-26.22656 V 147.21094 c 0,-1.8711 -0.0391,-3.73047 -0.125,-5.57813 z m -41.73047,207.52735 c 0,47.63671 -38.75782,86.39062 -86.38282,86.39062 H 155.02734 c -47.63672,0 -86.394528,-38.75391 -86.394528,-86.39062 V 147.21094 c 0,-47.636721 38.757808,-86.390628 86.394528,-86.390628 h 201.95703 c 47.625,0 86.38282,38.753907 86.38282,86.390628 z m 0,0" />
    <path
       id="path21"
       d="m 256.00391,127.87109 c -66.33985,0 -120.32032,53.98047 -120.32032,120.32032 0,66.33984 53.98047,120.30859 120.32032,120.30859 66.34375,0 120.3125,-53.96875 120.3125,-120.30859 0,-66.33985 -53.96875,-120.32032 -120.3125,-120.32032 z m 0,198.76953 c -43.26954,0 -78.46094,-35.1914 -78.46094,-78.44921 0,-43.26954 35.1914,-78.46094 78.46094,-78.46094 43.26171,0 78.45312,35.1914 78.45312,78.46094 0,43.25781 -35.19141,78.44921 -78.45312,78.44921 z m 0,0" />
    <path
       id="path23"
       d="m 406.36328,124.73828 c 0,15.28125 -12.39062,27.67188 -27.67187,27.67188 -15.28516,0 -27.67579,-12.39063 -27.67579,-27.67188 0,-15.28515 12.39063,-27.671874 27.67579,-27.671874 15.28125,0 27.67187,12.386724 27.67187,27.671874 z m 0,0" />
  </g>
</svg>
