<?xml version="1.0" encoding="UTF-8" standalone="no"?>
<svg
   xmlns:dc="http://purl.org/dc/elements/1.1/"
   xmlns:cc="http://creativecommons.org/ns#"
   xmlns:rdf="http://www.w3.org/1999/02/22-rdf-syntax-ns#"
   xmlns:svg="http://www.w3.org/2000/svg"
   xmlns="http://www.w3.org/2000/svg"
   version="1.1"
   id="Capa_1"
   x="0px"
   y="0px"
   viewBox="0 0 490.52389 256.009"
   xml:space="preserve"
   width="490.5239"
   height="256.009"><metadata
   id="metadata41"><rdf:RDF><cc:Work
       rdf:about=""><dc:format>image/svg+xml</dc:format><dc:type
         rdf:resource="http://purl.org/dc/dcmitype/StillImage" /><dc:title></dc:title></cc:Work></rdf:RDF></metadata><defs
   id="defs39" />
<path
   style="fill:#ffc107"
   d="M 487.41175,237.79 252.74475,3.123 c -4.165,-4.164 -10.917,-4.164 -15.083,0 L 2.99475,237.79 c -4.093,4.237 -3.976,10.99 0.262,15.083 4.134,3.993 10.687,3.993 14.821,0 l 227.115,-227.115 227.115,227.136 c 4.237,4.093 10.99,3.976 15.083,-0.261 3.993,-4.134 3.993,-10.688 0,-14.821 z"
   id="path2" />
<path
   d="m 479.85975,256.009 c -2.831,0.005 -5.548,-1.115 -7.552,-3.115 L 245.19275,25.758 18.07775,252.894 c -4.237,4.093 -10.99,3.976 -15.083,-0.262 -3.993,-4.134 -3.993,-10.687 0,-14.821 L 237.66175,3.144 c 4.165,-4.164 10.917,-4.164 15.083,0 l 234.667,234.667 c 4.159,4.172 4.148,10.926 -0.024,15.085 -1.999,1.993 -4.706,3.112 -7.528,3.113 z"
   id="path4" />
<g
   id="g6"
   transform="translate(7.5e-4,-117.257)">
</g>
<g
   id="g8"
   transform="translate(7.5e-4,-117.257)">
</g>
<g
   id="g10"
   transform="translate(7.5e-4,-117.257)">
</g>
<g
   id="g12"
   transform="translate(7.5e-4,-117.257)">
</g>
<g
   id="g14"
   transform="translate(7.5e-4,-117.257)">
</g>
<g
   id="g16"
   transform="translate(7.5e-4,-117.257)">
</g>
<g
   id="g18"
   transform="translate(7.5e-4,-117.257)">
</g>
<g
   id="g20"
   transform="translate(7.5e-4,-117.257)">
</g>
<g
   id="g22"
   transform="translate(7.5e-4,-117.257)">
</g>
<g
   id="g24"
   transform="translate(7.5e-4,-117.257)">
</g>
<g
   id="g26"
   transform="translate(7.5e-4,-117.257)">
</g>
<g
   id="g28"
   transform="translate(7.5e-4,-117.257)">
</g>
<g
   id="g30"
   transform="translate(7.5e-4,-117.257)">
</g>
<g
   id="g32"
   transform="translate(7.5e-4,-117.257)">
</g>
<g
   id="g34"
   transform="translate(7.5e-4,-117.257)">
</g>
</svg>
