<?xml version="1.0" encoding="UTF-8" standalone="no"?>
<!-- Created with Inkscape (http://www.inkscape.org/) -->

<svg
   xmlns:dc="http://purl.org/dc/elements/1.1/"
   xmlns:cc="http://creativecommons.org/ns#"
   xmlns:rdf="http://www.w3.org/1999/02/22-rdf-syntax-ns#"
   xmlns:svg="http://www.w3.org/2000/svg"
   xmlns="http://www.w3.org/2000/svg"
   xmlns:sodipodi="http://sodipodi.sourceforge.net/DTD/sodipodi-0.dtd"
   xmlns:inkscape="http://www.inkscape.org/namespaces/inkscape"
   width="1920"
   height="1080"
   viewBox="0 0 507.99999 285.75001"
   version="1.1"
   id="svg8"
   inkscape:version="0.92.4 (5da689c313, 2019-01-14)"
   sodipodi:docname="bg-sect1.svg">
  <defs
     id="defs2" />
  <sodipodi:namedview
     id="base"
     pagecolor="#ffffff"
     bordercolor="#666666"
     borderopacity="1.0"
     inkscape:pageopacity="0.0"
     inkscape:pageshadow="2"
     inkscape:zoom="0.49497475"
     inkscape:cx="765.56966"
     inkscape:cy="308.21268"
     inkscape:document-units="mm"
     inkscape:current-layer="layer1"
     showgrid="false"
     units="px"
     inkscape:window-width="1920"
     inkscape:window-height="1021"
     inkscape:window-x="-8"
     inkscape:window-y="-8"
     inkscape:window-maximized="1" />
  <metadata
     id="metadata5">
    <rdf:RDF>
      <cc:Work
         rdf:about="">
        <dc:format>image/svg+xml</dc:format>
        <dc:type
           rdf:resource="http://purl.org/dc/dcmitype/StillImage" />
        <dc:title></dc:title>
      </cc:Work>
    </rdf:RDF>
  </metadata>
  <g
     inkscape:label="Layer 1"
     inkscape:groupmode="layer"
     id="layer1"
     transform="translate(0,-11.249983)">
    <path
       style="opacity:1;fill:#82c434;fill-opacity:1;stroke:none;stroke-width:1.02952588;stroke-opacity:1"
       d="m -28.016922,347.37683 c -10.002006,-11.99822 24.9369694,-71.74211 24.8536743,-72.12912 -0.083287,-0.38698 26.7128387,-3.77117 29.4464347,-4.64794 62.489976,-15.89269 48.298018,-21.49971 81.930653,-34.88333 61.36296,-24.41848 80.60158,-29.98581 109.11988,-31.57744 25.26522,-1.41009 34.8512,-2.26104 45.0412,-3.99828 74.33503,-12.67299 201.33197,-80.83905 222.10524,-148.494202 16.41796,-53.4706119 -527.645986,196.230222 0.53504,-40.723161 0.6971,-2.0837789 7.42256,1.238123 15.9164,-1.5625951 3.85272,-1.2703757 2.38404,-4.2122529 15.3893,-6.6397793 13.00528,-2.42752631 18.38891,-4.0100729 18.38891,-4.0100729 0.22402,0.2219853 18.11119,-13.8074407 -17.17983,16.3369313 -5.4247,13.815174 -11.91555,29.688096 -13.7947,40.772927 -13.68343,36.126901 -31.08939,39.92348 -57.92291,83.322682 -28.01378,45.30817 -73.90584,66.09407 -121.5746,78.45718 -20.17987,5.23376 -54.89614,14.43369 -79.00547,15.42218 -35.15474,1.44136 -56.25017,4.63394 -120.71539,30.58248 -24.556441,9.88444 -25.726937,18.3477 -39.40168,22.83214 -20.7017,-11.55198 -26.269691,-6.68456 -34.911813,-2.10121 -1.04732,0.55545 -63.022904,81.2711 -78.220339,63.04061 z"
       id="path4543"
       inkscape:connector-curvature="0"
       sodipodi:nodetypes="sccsssscsscccsssscss" />
  </g>
</svg>
