<?xml version="1.0" encoding="UTF-8" standalone="no"?>
<!-- Created with Inkscape (http://www.inkscape.org/) -->

<svg
   xmlns:dc="http://purl.org/dc/elements/1.1/"
   xmlns:cc="http://creativecommons.org/ns#"
   xmlns:rdf="http://www.w3.org/1999/02/22-rdf-syntax-ns#"
   xmlns:svg="http://www.w3.org/2000/svg"
   xmlns="http://www.w3.org/2000/svg"
   xmlns:sodipodi="http://sodipodi.sourceforge.net/DTD/sodipodi-0.dtd"
   xmlns:inkscape="http://www.inkscape.org/namespaces/inkscape"
   width="1920"
   height="1400"
   viewBox="0 0 507.99999 370.41668"
   version="1.1"
   id="svg8"
   inkscape:version="0.92.4 (5da689c313, 2019-01-14)"
   sodipodi:docname="bg-sect2.svg">
  <defs
     id="defs2" />
  <sodipodi:namedview
     id="base"
     pagecolor="#ffffff"
     bordercolor="#666666"
     borderopacity="1.0"
     inkscape:pageopacity="0.0"
     inkscape:pageshadow="2"
     inkscape:zoom="0.35"
     inkscape:cx="296.57541"
     inkscape:cy="928.68907"
     inkscape:document-units="mm"
     inkscape:current-layer="layer1"
     showgrid="false"
     units="px"
     inkscape:window-width="1920"
     inkscape:window-height="1021"
     inkscape:window-x="-8"
     inkscape:window-y="-8"
     inkscape:window-maximized="1" />
  <metadata
     id="metadata5">
    <rdf:RDF>
      <cc:Work
         rdf:about="">
        <dc:format>image/svg+xml</dc:format>
        <dc:type
           rdf:resource="http://purl.org/dc/dcmitype/StillImage" />
        <dc:title></dc:title>
      </cc:Work>
    </rdf:RDF>
  </metadata>
  <g
     inkscape:label="Layer 1"
     inkscape:groupmode="layer"
     id="layer1"
     transform="translate(0,73.41668)">
    <path
       style="opacity:1;fill:#82c434;fill-opacity:1;stroke:none;stroke-width:1.0573498;stroke-opacity:1"
       d="m -192.6885,245.34306 c -9.15873,-13.1094 170.977096,-49.0819 170.890776,-49.47581 -0.08631,-0.39387 27.6828182,-3.83838 30.515675,-4.73078 64.759079,-16.17595 50.05179,-21.88291 84.905679,-35.50508 63.59113,-24.8537 83.52833,-30.52026 113.08217,-32.14026 26.18264,-1.43522 36.1167,-2.30134 46.67671,-4.06954 77.03424,-12.89887 208.64263,-82.279888 230.1702,-151.140898 17.01412,-54.42367 -546.805561,199.727748 0.55447,-41.449 0.72241,-2.12092 7.69208,1.26019 16.49435,-1.59045 3.99262,-1.29302 2.47061,-4.28733 15.94811,-6.75813 13.47752,-2.47079 19.05663,-4.08154 19.05663,-4.08154 0.23216,0.22594 18.76884,-14.05354 -17.80365,16.62811 -5.62168,14.06141 -12.34822,30.21725 -14.29561,41.49966 -14.18029,36.7708104 -32.21829,40.63506 -60.02617,84.80778 -29.031,46.115728 -76.58947,67.272108 -125.98915,79.855568 -20.91263,5.32705 -56.8895,14.69096 -81.87427,15.69706 -36.43126,1.46705 -58.2927,4.71654 -125.09873,31.12757 -25.448127,10.06062 -26.661125,18.67473 -40.832418,23.2391 C 48.232863,195.49854 36.74536,195.68285 33.506761,205.11775 13.949942,262.09196 -178.50055,265.65103 -192.6885,245.34306 Z"
       id="path4543"
       inkscape:connector-curvature="0"
       sodipodi:nodetypes="sccsssscsscccsssscss" />
    <path
       style="opacity:1;fill:#82c434;fill-opacity:1;stroke:none;stroke-width:0.53453904;stroke-opacity:1"
       d="m 359.38074,418.53687 c -68.39863,-61.27829 -23.18,0.42975 -69.75639,-44.47297 -24.08156,-23.21622 -46.60233,3.43099 -97.79987,-33.08466 0,0 6.54031,5.0939 -3.06436,3.22903 -24.95784,-4.84586 22.04416,39.15872 -13.15454,41.89269 -17.58107,-13.58408 -17.05429,-16.72149 -30.86133,-8.42541 -13.99819,8.41093 -89.970315,-16.8905 -82.005688,-30.02335 12.796029,-21.09935 0.865215,-61.31845 -2.13727,-66.75285 C 46.21041,254.85232 58.757384,246.10844 -0.72847614,233.74836 L -62.9699,220.81573 2.2767456,219.15034 c 8.1085694,-0.20697 8.2032574,-12.26249 8.3893974,-12.14798 0.186135,0.11449 5.353955,-1.09047 6.594911,0.0816 11.334059,10.70504 48.847596,14.82811 60.119134,39.58589 5.264574,11.56357 3.642275,32.05871 16.413324,50.49728 11.500698,16.60449 29.288818,25.15913 33.593348,29.12225 7.38815,-7.15726 12.00978,-19.13491 46.32332,-15.21527 7.50834,1.54752 39.67926,13.0571 59.12225,11.4806 77.23743,10.85553 29.66621,4.88046 54.3865,19.62578 1746.90177,1042.00331 43.30955,8.84389 92.91186,54.61966 l 3.38704,3.12576 -8.32726,12.65727 -8.32729,12.65724 -7.48254,-6.70364 z"
       id="path4608"
       inkscape:connector-curvature="0"
       sodipodi:nodetypes="cssscsssscscssscccscccccc" />
  </g>
</svg>
