<?xml version="1.0" encoding="UTF-8" standalone="no"?>
<svg
   xmlns:dc="http://purl.org/dc/elements/1.1/"
   xmlns:cc="http://creativecommons.org/ns#"
   xmlns:rdf="http://www.w3.org/1999/02/22-rdf-syntax-ns#"
   xmlns:svg="http://www.w3.org/2000/svg"
   xmlns="http://www.w3.org/2000/svg"
   xmlns:sodipodi="http://sodipodi.sourceforge.net/DTD/sodipodi-0.dtd"
   xmlns:inkscape="http://www.inkscape.org/namespaces/inkscape"
   inkscape:version="1.0 (4035a4fb49, 2020-05-01)"
   sodipodi:docname="logo-preview.svg"
   id="svg73"
   viewBox="0 0 42.509109 39.6875"
   version="1.1"
   height="39.6875mm"
   width="42.509109mm">
  <defs
     id="defs77" />
  <sodipodi:namedview
     inkscape:current-layer="layer1"
     inkscape:window-maximized="1"
     inkscape:window-y="-8"
     inkscape:window-x="-8"
     inkscape:cy="71.023833"
     inkscape:cx="40.004778"
     inkscape:zoom="2.7901954"
     showguides="false"
     fit-margin-bottom="0"
     fit-margin-right="0"
     fit-margin-left="0"
     fit-margin-top="0"
     inkscape:pagecheckerboard="true"
     showgrid="false"
     id="namedview75"
     inkscape:window-height="1017"
     inkscape:window-width="1920"
     inkscape:pageshadow="2"
     inkscape:pageopacity="0"
     guidetolerance="10"
     gridtolerance="10"
     objecttolerance="10"
     borderopacity="1"
     bordercolor="#666666"
     pagecolor="#ffffff" />
  <metadata
     id="metadata2">
    <rdf:RDF>
      <cc:Work
         rdf:about="">
        <dc:format>image/svg+xml</dc:format>
        <dc:type
           rdf:resource="http://purl.org/dc/dcmitype/StillImage" />
        <dc:title></dc:title>
      </cc:Work>
    </rdf:RDF>
  </metadata>
  <g
     transform="translate(-47.396782,-6.3446331)"
     style="display:inline;opacity:0.951389;mix-blend-mode:normal"
     inkscape:label="Layer 1"
     id="layer1"
     inkscape:groupmode="layer">
    <ellipse
       ry="19.84375"
       rx="21.254555"
       cy="26.188383"
       cx="68.651337"
       id="path911"
       style="fill:#ff9900;stroke:none;stroke-width:0.295236" />
    <text
       transform="scale(0.79511109,1.2576859)"
       id="text963"
       y="30.927544"
       x="10.406699"
       style="font-size:1.45521px;line-height:1.25;font-family:'Cambria Math';-inkscape-font-specification:'Cambria Math';stroke-width:0.206722"
       xml:space="preserve"><tspan
         style="font-style:normal;font-variant:normal;font-weight:600;font-stretch:normal;font-size:1.45521px;font-family:'Open Sans';-inkscape-font-specification:'Open Sans Semi-Bold';fill:#ffffff;stroke-width:0.206722"
         y="30.927544"
         x="10.406699"
         id="tspan961"
         sodipodi:role="line" /></text>
    <text
       id="text967"
       y="41.534122"
       x="66.575775"
       style="font-style:normal;font-variant:normal;font-weight:600;font-stretch:normal;font-size:1.5875px;line-height:1.25;font-family:'Open Sans';-inkscape-font-specification:'Open Sans Semi-Bold';stroke-width:0.264583"
       xml:space="preserve"><tspan
         style="font-style:normal;font-variant:normal;font-weight:bold;font-stretch:normal;font-size:1.5875px;font-family:OpenSymbol;-inkscape-font-specification:'OpenSymbol Bold';fill:#ffffff;stroke-width:0.264583"
         y="41.534122"
         x="66.575775"
         id="tspan965"
         sodipodi:role="line">СОЙМИ</tspan></text>
    <path
       style="stroke-width:0.0773287"
       id="path969"
       class=""
       data-original="#000000"
       fill="#ffffff"
       d="m 65.275742,39.888569 c -0.383707,0 -0.695962,0.314419 -0.695962,0.700988 0,0.549268 0.630541,1.1164 0.657375,1.140217 0.01106,0.0098 0.02482,0.0147 0.03858,0.0147 0.01377,0 0.02753,-0.0049 0.03858,-0.01461 0.02683,-0.02389 0.657375,-0.591027 0.657375,-1.140295 0,-0.386568 -0.312255,-0.700988 -0.695962,-0.700988 z m 0,1.082606 c -0.213196,0 -0.386646,-0.173449 -0.386646,-0.386644 0,-0.213197 0.17345,-0.386646 0.386646,-0.386646 0.213196,0 0.386645,0.173449 0.386645,0.386646 0,0.213195 -0.173449,0.386644 -0.386645,0.386644 z" />
  </g>
  <g
     transform="translate(-47.396782,-6.3446331)"
     inkscape:label="Layer 2"
     id="layer2"
     inkscape:groupmode="layer">
    <g
       id="g71"
       fill="#ffffff"
       transform="matrix(1.0831232,0,0,1.0831232,-49.250134,-129.48361)">
      <g
         id="g12"
         aria-label="КОМП"
         style="font-variant-ligatures:normal;font-variant-caps:normal;font-variant-numeric:normal;font-feature-settings:normal"
         stroke-width="0.12928"
         transform="scale(0.96612,1.0351)" />
      <g
         id="g26"
         aria-label="РЕМОНТ"
         style="font-variant-ligatures:normal;font-variant-caps:normal;font-variant-numeric:normal;font-feature-settings:normal"
         stroke-width="0.17403"
         transform="scale(1.0609,0.94257)" />
      <g
         id="g34"
         transform="matrix(0.060821,0,0,0.060821,78.243,133.35)" />
      <g
         id="g44"
         transform="matrix(0.0051048,0,0,0.0051048,109.85,139.85)">
        <g
           id="g42"
           fill="#ffffff">
          <g
             id="g40"
             fill="#ffffff" />
        </g>
      </g>
      <g
         id="g52"
         transform="matrix(0.0039378,0,0,0.0039378,107.02,139.94)">
        <g
           id="g50"
           fill="#ffffff">
          <g
             id="g48"
             fill="#ffffff" />
        </g>
      </g>
      <g
         id="g57"
         transform="matrix(0.0036825,0,0,0.0036825,116.23,139.85)">
        <g
           fill="#ffffff"
           id="XMLID_476_" />
      </g>
      <g
         id="g69"
         transform="matrix(0.0049843,0,0,0.0049843,113,139.83)">
        <g
           transform="translate(37.260793,24.840529)"
           id="g67"
           fill="#ffffff">
          <g
             id="g65"
             fill="#ffffff">
            <g
               id="g63"
               fill="#ffffff">
              <path
                 d="m 195.21231,144.56335 -50,-49.999999 11.2,-11.2 c 3.2,-3.2 3.2,-8.4 0,-11.6 -3.2,-3.2 -8.4,-3.2 -11.6,0 L 88.012308,128.16335 c -3.2,3.2 -3.2,8.4 0,11.6 3.2,3.2 8.4,3.2 11.6,0 l 14.800002,-14.8 50,50 z m 209.6,228.404 -80.8,-80.4 22.4,-22.4 c 1.6,-1.6 1.6,-4.8 0,-6.4 l -112,-112 11.2,-11.2 c 3.2,-3.2 3.2,-8.4 0,-11.6 -3.2,-3.2 -8.4,-3.2 -11.6,0 l -86.8,86.4 c -3.2,3.2 -3.2,8.4 0,11.6 3.2,3.2 8.4,3.2 11.6,0 l 12.8,-12.8 15.6,15.6 8,-8 c 3.2,-3.2 8.4,-3.2 11.6,0 3.2,3.2 3.2,8.4 0,11.6 l -8,7.6 21.2,21.2 8,-8 c 3.2,-3.2 8.4,-3.2 11.6,0 3.2,3.2 3.2,8.4 0,11.6 l -8,7.6 21.2,21.2 8,-8 c 3.2,-3.2 8.4,-3.2 11.6,0 3.2,3.2 3.2,8.4 0,11.6 l -8,7.6 18.8,18.8 c 1.6,1.6 4.4,1.6 6.4,0 l 22.4,-22.4 80.8,80.8 c 3.2,3.2 8.4,3.2 11.6,0 3.6,-1.6 3.6,-6.8 0.4,-10 z M 830.10746,178.1869 804.6433,203.65107 c -2.0783,2.0783 -3.24638,4.8969 -3.24638,7.83592 0,2.93903 1.16734,5.75837 3.24638,7.83593 l 24.15498,24.15497 c 4.65382,4.65383 6.91092,11.07639 6.19278,17.62012 -0.71739,6.53929 -4.31692,12.3213 -9.87506,15.86468 -70.97695,45.24385 -77.59087,51.86072 -79.763,54.03507 -15.60314,15.6024 -15.60314,40.98973 0,56.5936 15.61865,15.61866 41.00746,15.58763 56.59361,0 2.17508,-2.17434 8.79343,-8.79343 54.03433,-79.76299 3.53451,-5.54485 9.3143,-9.13625 15.85655,-9.85512 6.56294,-0.71592 12.98476,1.5301 17.6275,6.1721 l 24.15498,24.15498 c 4.32727,4.32727 11.34532,4.32727 15.67259,0 l 25.4649,-25.46491 z m -44.70599,191.50212 c -6.11743,6.11743 -16.03534,6.11743 -22.15203,0 -6.11743,-6.11743 -6.11743,-16.03535 0,-22.15204 6.11742,-6.11743 16.03534,-6.11743 22.15203,0 6.11743,6.11669 6.11743,16.03461 0,22.15204 z M 1059.0973,198.48967 c 4.328,-4.32726 4.328,-11.34458 0,-15.67258 l -16.6316,-16.63158 c -3.7613,-3.76133 -9.6667,-4.31914 -14.0656,-1.32987 l -34.96985,23.76783 23.62375,-35.20624 c 2.9501,-4.39672 2.3783,-10.26738 -1.3668,-14.01098 l -36.07657,-36.07658 c -3.3306,-3.330598 -8.40186,-4.192801 -12.64417,-2.14849 l -6.23785,3.00331 2.98704,-6.627218 c 1.8936,-4.200191 0.99076,-9.132553 -2.26669,-12.390748 L 950.12432,73.84337 c -4.32726,-4.327269 -11.34458,-4.327269 -15.67258,0 l -87.9639,87.9639 124.64631,124.6463 z m -2006.55369,-88.0279 c -6.6363,-7.90041 -12.9566,-15.168779 -18.6449,-21.805121 -5.6883,6.952358 -12.0087,14.220731 -18.645,21.805121 -40.13411,46.13838 -95.43691,110.28969 -95.43691,160.22026 0,31.60163 12.6406,60.0431 33.4977,80.58416 20.5411,20.54105 48.98251,33.49772 80.58421,33.49772 31.6016,0 60.04306,-12.64065 80.58412,-33.49772 20.54106,-20.54106 33.49772,-49.29855 33.49772,-80.58416 0,-49.93057 -55.30285,-113.76586 -95.43694,-160.22026 z m 701.78232,72.79753 c -6.9644,-6.14506 -15.56748,-9.83209 -25.39957,-9.83209 h -58.99253 c -4.50637,0 -8.60308,-3.68703 -8.60308,-8.60308 V 105.8316 c 0,-9.832087 -4.0967,-18.435164 -10.24176,-24.98989 -6.55472,-6.554727 -15.1578,-10.24176 -24.98989,-10.24176 h -34.82198 c -9.83209,0 -18.43516,4.096704 -24.98989,10.24176 -6.55473,6.554726 -10.24176,15.157803 -10.24176,24.98989 v 58.99253 c 0,4.50638 -3.68703,8.60308 -8.60308,8.60308 h -58.58286 c -9.83209,0 -18.43517,4.0967 -24.98989,10.24176 -6.55473,6.55473 -10.24176,15.1578 -10.24176,24.98989 v 34.82198 c 0,9.83209 4.0967,18.43517 10.24176,24.9899 6.55472,6.55472 15.1578,10.24175 24.98989,10.24175 h 58.99253 c 4.50638,0 8.60308,3.68704 8.60308,8.60308 v 58.99254 c 0,9.83208 4.0967,18.43516 10.24176,24.98989 6.55473,6.55472 15.1578,10.24176 24.98989,10.24176 h 34.82198 c 9.83209,0 18.43517,-4.09671 24.9899,-10.24176 6.55472,-6.55473 10.24175,-15.15781 10.24175,-24.98989 V 286.9059 c 0,-4.50637 3.68704,-8.60308 8.60308,-8.60308 h 58.99253 c 9.83209,0 18.43517,-4.0967 24.9899,-10.24175 6.55472,-6.55473 10.24176,-15.15781 10.24176,-24.9899 v -34.82198 c 0,-9.83209 -4.09671,-18.43516 -10.24176,-24.98989 z M -1495.3519,-154.10563 v 814.77841 h 2827.8795 v -814.77841 z m 143.4865,124.314352 H 1199.5461 V 532.93568 h -2551.4115 z m 3274.398,343.209308 c -0.4283,-9.16079 -0.3197,-18.30377 -1.9103,-27.62527 -1.593,-9.33273 -4.7277,-17.91086 -7.3636,-26.70521 l 45.4471,-48.4025 c 10.1309,-10.78837 10.6264,-27.45078 1.1665,-38.88942 L 1899.177,98.706224 c -9.4505,-11.374819 -25.9401,-13.984083 -38.4074,-6.01767 l -55.7374,35.566676 c -16.565,-8.67611 -33.8254,-15.86938 -52.2536,-20.11341 l -18.87,-62.406107 c -4.3269,-14.1598 -18.4661,-22.955373 -33.0591,-20.463619 l -93.6543,15.986516 c -14.5942,2.491143 -25.0774,15.489873 -24.4001,30.272001 l 2.8893,65.133369 c -15.9768,10.11674 -29.9182,22.69058 -42.6222,36.30737 l -64.3792,-15.06401 c -14.4576,-3.37082 -29.158,4.49565 -34.2891,18.42702 l -32.9492,89.07348 c -5.1502,13.87792 0.8431,29.42271 13.9999,36.30127 l 58.9296,30.5856 c 0.3661,9.18154 0.266,18.31232 1.8591,27.6448 1.591,9.32114 4.7167,17.91208 7.3519,26.69667 l -45.4349,48.41104 c -10.1417,10.7902 -10.6391,27.44224 -1.1788,38.88088 l 60.6954,73.08941 c 9.4524,11.38555 25.9401,13.9853 38.4074,6.01767 l 55.7276,-35.61915 c 16.565,8.67599 33.8254,15.86937 52.2537,20.11341 l 18.8699,62.40611 c 4.3377,14.22325 18.4746,23.00784 33.0688,20.51731 l 93.6544,-15.98652 c 14.6039,-2.49273 25.0798,-15.47889 24.4001,-30.272 l -2.8894,-65.13337 c 15.9767,-10.11601 29.9181,-22.69058 42.6246,-36.2976 l 64.3768,15.05302 c 14.4575,3.37168 29.1579,-4.49565 34.2891,-18.42702 l 32.9492,-89.07348 c 5.1502,-13.87793 -0.8432,-29.42271 -13.9987,-36.29029 z m -199.3281,125.28323 c -64.0022,10.92479 -124.6853,-32.06577 -135.6065,-96.05698 -10.9249,-64.00342 32.0657,-124.68531 96.0679,-135.61876 63.9913,-10.92296 124.6731,32.06577 135.6066,96.06918 10.923,63.99122 -32.067,124.67311 -96.0582,135.60656 z m 1004.2061,-315.7645 c -6.5879,-10.35628 -12.5393,-21.04934 -20.5857,-30.821115 -8.0555,-9.782024 -17.3995,-17.663142 -26.3098,-26.126807 l 20.6125,-86.442622 c 4.5963,-19.267775 -5.9071,-38.954095 -24.5027,-45.951015 l -119.1026,-44.550161 c -18.5405,-6.93055 -39.4312,1.00146 -48.6173,18.546601 l -41.0993,78.373098 c -25.0103,0.934347 -49.8436,4.0548957 -74.0717,11.3773817 l -63.4128,-59.9472997 c -14.4405,-13.57164 -36.7137,-14.38677 -52.0096,-1.79133 l -98.1643,80.838008 c -15.2959,12.596657 -18.8334,34.667348 -8.2168,51.387235 l 46.6612,73.742246 c -11.8331,22.37331 -19.6681,46.24875 -25.3727,70.51468 l -84.8002,25.30557 c -19.0359,5.6965 -30.8821,24.61126 -27.5813,44.20362 l 20.9468,125.38085 c 3.2438,19.54599 20.5405,33.61915 40.3989,32.86137 l 88.7916,-3.65087 c 6.5304,10.42242 12.4844,21.09571 20.5392,30.87725 8.0463,9.77092 17.3886,17.6729 26.2891,26.12437 l -20.5917,86.44506 c -4.6074,19.27753 5.8867,38.95287 24.4819,45.94979 l 119.1027,44.55017 c 18.5502,6.94164 39.4312,-1.00183 48.6172,-18.54661 l 41.0542,-78.42801 c 25.0102,-0.93471 49.8448,-4.05514 74.0717,-11.3775 l 63.4128,59.9473 c 14.4954,13.63753 36.7589,14.4429 52.0559,1.84685 l 98.1644,-80.83801 c 15.3068,-12.6052 18.8431,-34.65636 8.2169,-51.38723 l -46.6612,-73.74225 c 11.833,-22.37331 19.668,-46.24875 25.3813,-70.50369 l 84.7916,-25.31656 c 19.0359,-5.69638 30.8821,-24.61126 27.5813,-44.20362 l -20.9468,-125.38085 c -3.2439,-19.54599 -20.5417,-33.61915 -40.3903,-32.84917 z M 2579.15,400.99549 c -67.0845,55.24445 -166.1616,45.65449 -221.4024,-21.4203 -55.2445,-67.08455 -45.6533,-166.16166 21.4312,-221.41465 67.0736,-55.23469 166.1495,-45.64473 221.4025,21.44104 55.2347,67.07357 45.6447,166.14946 -21.4288,221.39025 z m -143.0135,801.98601 c 3.3401,-20.6162 4.9678,-41.7985 4.9678,-63.0382 0,-21.125 -1.6277,-42.0535 -4.8964,-62.5428 l 108.0606,-81.76299 c 25.3654,-19.23116 32.3696,-54.02298 16.2806,-81.13941 l -69.7545,-116.4962 c -16.2208,-27.04687 -51.0553,-38.64781 -81.0662,-26.9883 l -127.3576,49.4873 c -34.7747,-27.03467 -72.5061,-48.1011 -112.4425,-62.72703 l -19.3557,-131.12824 c -4.5727,-30.83331 -32.3574,-54.09253 -64.7258,-54.09253 h -139.3771 c -32.3696,0 -60.1523,23.26044 -64.7258,54.14989 l -19.3556,131.18924 c -40.006,14.82118 -78.1218,36.13165 -111.9142,62.60013 l -127.9434,-49.4873 c -30.0121,-11.60118 -64.7868,0 -81.0064,26.9883 l -69.6946,116.4962 c -16.2086,27.11521 -9.1456,62.03515 16.4123,81.19676 l 107.9411,81.20778 c -3.3399,20.6162 -4.9677,41.7985 -4.9677,63.0394 0,21.125 1.6278,42.0523 4.8961,62.5428 l -108.0606,81.7617 c -25.3665,19.2312 -32.3586,54.023 -16.2805,81.1395 l 69.6934,116.4974 c 16.2086,26.9883 51.0553,38.5892 81.0674,26.9883 l 127.3577,-49.4861 c 34.7759,27.0347 72.4963,48.1011 112.4425,62.727 l 19.3556,131.1283 c 4.6328,30.8321 32.416,54.0925 64.7856,54.0925 h 139.3772 c 32.3696,0 60.1535,-23.2604 64.7258,-54.1499 l 19.3556,-131.1892 c 40.0072,-14.8224 78.1217,-36.1317 111.9154,-62.6002 l 127.9433,49.4861 c 30.1427,11.6589 64.8576,0.061 81.0065,-26.9883 l 69.6934,-116.4974 c 16.2086,-27.1152 9.1453,-62.0339 -16.4112,-81.1968 z m -419.974,157.6199 c -126.1862,0 -228.8215,-98.9856 -228.8215,-220.6581 0,-121.6677 102.6378,-220.65815 228.8215,-220.65815 126.174,0 228.8094,98.98555 228.8094,220.65815 0,121.6676 -102.6378,220.6581 -228.8094,220.6581 z M 1313.0368,908.16912 H 1002.3634 V 1658.9082 H 793.38249 V 908.16912 H 486.88088 V 757.77547 H 1313.0517 Z M 385.01804,1658.9271 H 176.03715 v -386.1959 h -407.51943 v 386.1959 H -440.46317 V 757.80951 h 208.98089 V 1122.9578 H 176.03715 V 757.80951 h 208.98089 z m -979.10238,-431.1658 q 0,133.0657 -52.94177,233.3212 -52.94176,100.2612 -151.85878,154.7262 -98.22099,54.463 -225.70441,54.463 -126.085,0 -225.002,-53.8447 -98.917,-53.8446 -153.2508,-153.4893 -54.3359,-100.2612 -55.0319,-230.2387 v -44.5614 q 0,-133.0658 53.6378,-233.94532 54.3359,-101.49983 152.5569,-155.34449 98.917,-54.46305 225.7044,-54.46305 126.78736,0 225.00197,54.46305 98.91701,53.84466 152.55692,155.34449 54.3338,100.88142 54.3338,233.32122 z m -211.76707,-40.8472 q 0,-141.7288 -57.11998,-215.37496 -57.1221,-73.64992 -163.00571,-73.64992 -105.1875,0 -162.3075,73.03154 -57.1221,72.41124 -57.8181,212.89764 v 43.9411 q 0,138.0165 57.12,214.1456 57.1221,76.1254 164.3998,76.1254 105.18541,0 161.61151,-73.0316 56.42396,-73.648 57.11998,-214.1456 z m -1598.72099,-430.03122 260.5264,653.55662 259.1429,-653.55662 h 274.4679 v 901.11762 h -209.6769 v -246.3318 l 20.8975,-425.19004 -273.7656,671.50294 h -143.5002 l -273.0631,-670.8978 20.8974,424.566 v 246.3318 H -2677.627 V 756.86397 Z m -465.2864,510.59112 h -401.2405 v 241.3772 h 470.9057 v 149.155 h -679.8802 V 756.88855 h 678.4967 V 907.2822 h -469.5009 v 214.7509 h 401.2404 z m -1320.724,73.752 v 317.4931 h -208.9809 V 757.60149 h 395.6638 q 114.2421,0 200.6223,37.1351 87.0763,37.1332 133.7475,105.83228 46.6734,68.07881 46.6734,155.34453 0,132.4454 -102.4013,209.1911 -101.7032,76.1253 -282.1305,76.1253 z m 0,-150.3936 h 186.6893 q 82.8959,0 126.0849,-34.6597 43.8851,-34.6578 43.8851,-99.0245 0,-66.22362 -43.8851,-107.0709 -43.885,-40.84729 -121.2086,-42.08594 h -191.5656 z m 2589.3286,-554.89068 h -148.3382 V -4.5190033 h -287.3181 V 635.94172 h -147.8459 v -768.78131 h 583.4944 z m -1277.3571,-768.38673 184.3155,557.57879 183.3288,-557.57879 h 194.1622 V 636.3363 H -2465.143 V 426.19291 l 14.7894,-362.740838 -193.6795,572.884228 h -101.5198 l -193.1853,-572.365048 14.7895,362.221658 V 636.3363 h -147.8459 v -768.78131 z m -300.4406,402.88385 q 0,113.52188 -37.4542,199.05993 -37.4543,85.53598 -107.4357,132.00054 -69.487,46.46455 -159.6735,46.46455 -89.1998,0 -159.1811,-45.93707 -69.9814,-45.93499 -108.4203,-130.94556 -38.4409,-85.53598 -38.9333,-196.41834 v -38.01645 q 0,-113.51979 37.9467,-199.585337 38.4409,-86.593032 107.9279,-132.530102 69.9813,-46.464551 159.6735,-46.464551 89.6941,0 159.1812,46.464551 69.9813,45.93707 107.9279,132.530102 38.439,86.065547 38.439,199.057847 z m -149.8171,-34.84737 q 0,-120.91292 -40.4102,-183.746191 -40.4102,-62.833268 -115.3188,-62.833268 -74.4162,0 -114.8265,62.305781 -40.4102,61.776218 -40.9045,181.634158 v 37.48689 q 0,117.74593 40.4103,182.69122 40.4121,64.94529 116.3054,64.94529 74.4162,0 114.3341,-62.30578 39.9179,-62.83327 40.4102,-182.68914 z m -842.7998,86.7654 h -85.2573 V 636.5232 h -147.8458 v -768.78131 h 147.8458 v 307.83234 h 67.5158 l 175.4437,-307.83234 h 180.3729 l -221.2793,363.79997 244.4423,404.98134 h -176.4303 z"
                 id="path61" />
            </g>
          </g>
        </g>
      </g>
    </g>
  </g>
</svg>
