<?xml version="1.0" encoding="UTF-8" standalone="no"?>
<svg
   xmlns:dc="http://purl.org/dc/elements/1.1/"
   xmlns:cc="http://creativecommons.org/ns#"
   xmlns:rdf="http://www.w3.org/1999/02/22-rdf-syntax-ns#"
   xmlns:svg="http://www.w3.org/2000/svg"
   xmlns="http://www.w3.org/2000/svg"
   xmlns:sodipodi="http://sodipodi.sourceforge.net/DTD/sodipodi-0.dtd"
   xmlns:inkscape="http://www.inkscape.org/namespaces/inkscape"
   width="42.509109mm"
   height="39.6875mm"
   version="1.1"
   viewBox="0 0 42.509109 39.6875"
   id="svg73"
   sodipodi:docname="logo-preview.svg"
   inkscape:version="1.0 (4035a4fb49, 2020-05-01)">
  <defs
     id="defs77" />
  <sodipodi:namedview
     inkscape:document-rotation="0"
     pagecolor="#ffffff"
     bordercolor="#666666"
     borderopacity="1"
     objecttolerance="10"
     gridtolerance="10"
     guidetolerance="10"
     inkscape:pageopacity="0"
     inkscape:pageshadow="2"
     inkscape:window-width="1920"
     inkscape:window-height="1017"
     id="namedview75"
     showgrid="false"
     inkscape:pagecheckerboard="true"
     fit-margin-top="0"
     fit-margin-left="0"
     fit-margin-right="0"
     fit-margin-bottom="0"
     showguides="false"
     inkscape:zoom="0.49324152"
     inkscape:cx="696.96982"
     inkscape:cy="164.94656"
     inkscape:window-x="-8"
     inkscape:window-y="-8"
     inkscape:window-maximized="1"
     inkscape:current-layer="layer2" />
  <metadata
     id="metadata2">
    <rdf:RDF>
      <cc:Work
         rdf:about="">
        <dc:format>image/svg+xml</dc:format>
        <dc:type
           rdf:resource="http://purl.org/dc/dcmitype/StillImage" />
        <dc:title></dc:title>
      </cc:Work>
    </rdf:RDF>
  </metadata>
  <g
     inkscape:groupmode="layer"
     id="layer1"
     inkscape:label="Layer 1"
     style="display:inline;opacity:0.951389;mix-blend-mode:normal"
     transform="translate(-47.396782,-6.3446331)">
    <ellipse
       style="fill:#ff6600;stroke:none;stroke-width:0.295236"
       id="path911"
       cx="67.922485"
       cy="26.111841"
       rx="21.254555"
       ry="19.84375" />
    <text
       xml:space="preserve"
       style="font-size:1.45521px;line-height:1.25;font-family:'Cambria Math';-inkscape-font-specification:'Cambria Math';stroke-width:0.206722"
       x="10.406699"
       y="30.927544"
       id="text963"
       transform="scale(0.79511109,1.2576859)"><tspan
         sodipodi:role="line"
         id="tspan961"
         x="10.406699"
         y="30.927544"
         style="font-style:normal;font-variant:normal;font-weight:600;font-stretch:normal;font-size:1.45521px;font-family:'Open Sans';-inkscape-font-specification:'Open Sans Semi-Bold';fill:#ffffff;stroke-width:0.206722" /></text>
  </g>
  <g
     inkscape:groupmode="layer"
     id="layer2"
     inkscape:label="Layer 2"
     transform="translate(-47.396782,-6.3446331)">
    <g
       transform="matrix(0.00442515,0,0,0.00527325,66.435663,18.562153)"
       id="g48"
       fill="#ffffff"
       style="fill:#000000" />
    <g
       style="fill:#ffffff"
       id="g956"
       fill="#ffffff"
       transform="matrix(1.6613173,0,0,1.6613173,-148.26127,-193.6974)">
      <g
         style="fill:#ffffff"
         id="g919"
         transform="matrix(0.13326892,0,0,0.13326892,32.166807,110.61028)">
        <path
           style="fill:#ffffff"
           id="path913"
           stroke-width="0.24662"
           d="m 764.09,199.67 c 0.27372,-1.6895 0.40711,-3.4254 0.40711,-5.166 0,-1.7312 -0.13339,-3.4463 -0.40126,-5.1254 l 8.8556,-6.7005 c 2.0787,-1.576 2.6527,-4.4272 1.3342,-6.6494 l -5.7164,-9.5469 c -1.3293,-2.2165 -4.184,-3.1672 -6.6434,-2.2117 l -10.437,4.0555 c -2.8498,-2.2155 -5.9419,-3.9419 -9.2147,-5.1405 l -1.5862,-10.746 c -0.37474,-2.5268 -2.6517,-4.4329 -5.3043,-4.4329 h -11.422 c -2.6527,0 -4.9295,1.9062 -5.3043,4.4376 l -1.5862,10.751 c -3.2785,1.2146 -6.4021,2.961 -9.1714,5.1301 l -10.485,-4.0555 c -2.4595,-0.95072 -5.3093,0 -6.6385,2.2117 l -5.7115,9.5469 c -1.3283,2.2221 -0.74948,5.0838 1.345,6.6541 l 8.8458,6.655 c -0.2737,1.6895 -0.4071,3.4254 -0.4071,5.1661 0,1.7312 0.1334,3.4462 0.40124,5.1254 l -8.8556,6.7004 c -2.0788,1.576 -2.6518,4.4272 -1.3342,6.6494 l 5.7114,9.547 c 1.3283,2.2117 4.184,3.1624 6.6435,2.2117 l 10.437,-4.0554 c 2.8499,2.2155 5.9411,3.9419 9.2147,5.1405 l 1.5862,10.746 c 0.37966,2.5267 2.6565,4.4329 5.3092,4.4329 h 11.422 c 2.6527,0 4.9296,-1.9062 5.3043,-4.4376 l 1.5862,-10.751 c 3.2786,-1.2147 6.4021,-2.961 9.1715,-5.1301 l 10.485,4.0554 c 2.4702,0.95545 5.3151,0.005 6.6385,-2.2117 l 5.7114,-9.547 c 1.3283,-2.2221 0.74946,-5.0837 -1.3449,-6.6541 z m -34.417,12.917 c -10.341,0 -18.752,-8.1119 -18.752,-18.083 0,-9.9707 8.4112,-18.083 18.752,-18.083 10.34,0 18.751,8.1119 18.751,18.083 0,9.9707 -8.4112,18.083 -18.751,18.083 z" />
        <path
           style="fill:#ffffff"
           id="path915"
           stroke-width="0.3021"
           d="m 787.96,111.16 c -0.53988,-0.8487 -1.0276,-1.725 -1.687,-2.5258 -0.66015,-0.80164 -1.4259,-1.4475 -2.1561,-2.1411 l 1.6892,-7.084 c 0.37667,-1.579 -0.48409,-3.1923 -2.008,-3.7657 l -9.7605,-3.6509 c -1.5194,-0.56796 -3.2314,0.08207 -3.9842,1.5199 l -3.3681,6.4227 c -2.0496,0.07657 -4.0847,0.3323 -6.0702,0.93238 l -5.1967,-4.9127 c -1.1834,-1.1122 -3.0087,-1.179 -4.2622,-0.1468 l -8.0446,6.6247 c -1.2535,1.0323 -1.5434,2.841 -0.67337,4.2112 l 3.8239,6.0432 c -0.96972,1.8335 -1.6118,3.7901 -2.0793,5.7787 l -6.9494,2.0738 c -1.56,0.46683 -2.5308,2.0169 -2.2603,3.6225 l 1.7166,10.275 c 0.26583,1.6018 1.6833,2.7551 3.3107,2.693 l 7.2765,-0.29919 c 0.53517,0.85412 1.0231,1.7288 1.6832,2.5304 0.65939,0.80073 1.425,1.4483 2.1544,2.1409 l -1.6875,7.0842 c -0.37758,1.5798 0.48242,3.1922 2.0063,3.7656 l 9.7605,3.6509 c 1.5202,0.56887 3.2314,-0.0821 3.9842,-1.5199 l 3.3644,-6.4272 c 2.0496,-0.0766 4.0848,-0.33232 6.0702,-0.93239 l 5.1967,4.9127 c 1.1879,1.1176 3.0124,1.1836 4.266,0.15135 l 8.0446,-6.6247 c 1.2544,-1.033 1.5442,-2.8401 0.67338,-4.2112 l -3.8239,-6.0432 c 0.96972,-1.8335 1.6118,-3.7901 2.08,-5.7778 l 6.9487,-2.0747 c 1.56,-0.46682 2.5308,-2.0169 2.2603,-3.6225 l -1.7166,-10.275 c -0.26584,-1.6018 -1.6834,-2.7551 -3.31,-2.692 z m -12.15,22.787 c -5.4976,4.5273 -13.617,3.7414 -18.144,-1.7554 -4.5273,-5.4976 -3.7413,-13.617 1.7563,-18.145 5.4967,-4.5265 13.616,-3.7406 18.144,1.7571 4.5265,5.4967 3.7406,13.616 -1.7561,18.143 z" />
        <path
           style="fill:#ffffff"
           id="path917"
           stroke-width="0.22571"
           d="m 722,126.77 c -0.0351,-0.75073 -0.0262,-1.5 -0.15655,-2.2639 -0.13055,-0.76482 -0.38744,-1.4678 -0.60345,-2.1885 l 3.7244,-3.9666 c 0.83023,-0.88411 0.87084,-2.2496 0.0956,-3.187 l -4.974,-5.9897 c -0.77447,-0.93217 -2.1258,-1.146 -3.1475,-0.49315 l -4.5677,2.9147 c -1.3575,-0.71101 -2.772,-1.3005 -4.2822,-1.6483 l -1.5464,-5.1142 c -0.35459,-1.1604 -1.5133,-1.8812 -2.7092,-1.677 l -7.675,1.3101 c -1.196,0.20415 -2.0551,1.2694 -1.9996,2.4808 l 0.23678,5.3377 c -1.3093,0.82907 -2.4518,1.8595 -3.4929,2.9754 l -5.2759,-1.2345 c -1.1848,-0.27624 -2.3895,0.36842 -2.81,1.5101 l -2.7002,7.2996 c -0.42206,1.1373 0.0691,2.4112 1.1473,2.9749 l 4.8293,2.5065 c 0.03,0.75243 0.0218,1.5007 0.15235,2.2655 0.13039,0.76387 0.38654,1.4679 0.60249,2.1878 l -3.7234,3.9673 c -0.83112,0.88426 -0.87188,2.2489 -0.0966,3.1863 l 4.974,5.9897 c 0.77463,0.93305 2.1258,1.1461 3.1475,0.49315 l 4.5669,-2.919 c 1.3575,0.711 2.772,1.3005 4.2822,1.6483 l 1.5464,5.1142 c 0.35547,1.1656 1.514,1.8855 2.71,1.6814 l 7.675,-1.3101 c 1.1968,-0.20428 2.0553,-1.2685 1.9996,-2.4808 l -0.23679,-5.3377 c 1.3093,-0.82901 2.4518,-1.8595 3.4931,-2.9746 l 5.2757,1.2336 c 1.1848,0.27631 2.3895,-0.36842 2.81,-1.5101 l 2.7002,-7.2996 c 0.42206,-1.1373 -0.0691,-2.4112 -1.1472,-2.974 z m -16.335,10.267 c -5.245,0.89529 -10.218,-2.6278 -11.113,-7.8719 -0.8953,-5.2451 2.6278,-10.218 7.8728,-11.114 5.2441,-0.89514 10.217,2.6278 11.113,7.8729 0.89514,5.2441 -2.6279,10.217 -7.872,11.113 z" />
      </g>
    </g>
    <g
       transform="matrix(0.00573658,0,0,0.00683602,69.615907,18.441631)"
       id="g40"
       fill="#ffffff"
       style="fill:#000000" />
  </g>
</svg>
