<?xml version="1.0" encoding="UTF-8" standalone="no"?>
<!-- Created with Inkscape (http://www.inkscape.org/) -->

<svg
   xmlns:dc="http://purl.org/dc/elements/1.1/"
   xmlns:cc="http://creativecommons.org/ns#"
   xmlns:rdf="http://www.w3.org/1999/02/22-rdf-syntax-ns#"
   xmlns:svg="http://www.w3.org/2000/svg"
   xmlns="http://www.w3.org/2000/svg"
   xmlns:sodipodi="http://sodipodi.sourceforge.net/DTD/sodipodi-0.dtd"
   xmlns:inkscape="http://www.inkscape.org/namespaces/inkscape"
   width="37.949657mm"
   height="27.766703mm"
   viewBox="0 0 37.949657 27.766703"
   version="1.1"
   id="svg901"
   inkscape:version="0.92.4 (5da689c313, 2019-01-14)"
   sodipodi:docname="setup.svg">
  <defs
     id="defs895" />
  <sodipodi:namedview
     id="base"
     pagecolor="#ffffff"
     bordercolor="#666666"
     borderopacity="1.0"
     inkscape:pageopacity="0.0"
     inkscape:pageshadow="2"
     inkscape:zoom="1.4"
     inkscape:cx="154.08222"
     inkscape:cy="-7.6031383"
     inkscape:document-units="mm"
     inkscape:current-layer="layer1"
     showgrid="false"
     inkscape:pagecheckerboard="true"
     fit-margin-top="0"
     fit-margin-left="0"
     fit-margin-right="0"
     fit-margin-bottom="0"
     inkscape:window-width="1920"
     inkscape:window-height="1021"
     inkscape:window-x="-8"
     inkscape:window-y="-8"
     inkscape:window-maximized="1" />
  <metadata
     id="metadata898">
    <rdf:RDF>
      <cc:Work
         rdf:about="">
        <dc:format>image/svg+xml</dc:format>
        <dc:type
           rdf:resource="http://purl.org/dc/dcmitype/StillImage" />
        <dc:title></dc:title>
      </cc:Work>
    </rdf:RDF>
  </metadata>
  <g
     inkscape:label="Layer 1"
     inkscape:groupmode="layer"
     id="layer1"
     transform="translate(-85.260288,-161.24174)">
    <g
       transform="translate(50.438022,25.436227)"
       id="layer1-3"
       inkscape:label="Layer 1"
       style="fill:#ffffff">
      <g
         transform="matrix(0.44464611,0,0,0.47482305,34.822266,129.42627)"
         id="g3777"
         style="fill:#ffffff">
        <g
           id="g3719"
           style="fill:#ffffff">
          <g
             id="g3717"
             style="fill:#ffffff">
            <path
               inkscape:connector-curvature="0"
               style="fill:#ffffff"
               d="M 77.45,57.691 V 54.531 35.563 16.595 c 0,-1.736 -1.424,-3.16 -3.164,-3.16 h -63.22 c -1.739,0 -3.167,1.417 -3.167,3.16 v 18.968 18.968 3.16 L 0,67.175 c 0,2.613 2.122,4.738 4.738,4.738 H 80.61 c 2.616,0 4.738,-2.126 4.738,-4.738 z M 49.002,70.339 H 36.358 c -0.44,0 -0.791,-0.351 -0.791,-0.791 0,-0.44 0.351,-0.791 0.791,-0.791 h 12.644 c 0.433,0 0.791,0.351 0.791,0.791 -0.011,0.44 -0.358,0.791 -0.791,0.791 z m -19.358,-3.16 2.412,-2.895 h 21.237 l 2.412,2.895 z M 72.998,52.101 c 0,1.525 -1.242,2.759 -2.756,2.759 H 15.106 c -1.514,0 -2.756,-1.245 -2.756,-2.759 V 19.032 c 0,-1.525 1.242,-2.759 2.756,-2.759 h 55.136 c 1.514,0 2.756,1.242 2.756,2.759 0,0 0,33.069 0,33.069 z"
               id="path3713" />
            <path
               inkscape:connector-curvature="0"
               style="fill:#ffffff"
               d="m 51.578,32.542 2.734,-4.098 -3.035,-3.046 -4.101,2.738 c -0.433,-0.222 -0.913,-0.365 -1.378,-0.523 l -0.977,-4.885 h -4.295 l -0.977,4.885 c -0.469,0.165 -0.945,0.304 -1.378,0.523 l -4.101,-2.738 -3.035,3.038 2.734,4.101 c -0.225,0.447 -0.412,0.909 -0.573,1.392 l -4.839,0.977 v 4.291 l 4.839,0.97 c 0.161,0.487 0.347,0.948 0.573,1.396 l -2.738,4.101 3.038,3.035 4.101,-2.734 c 0.433,0.218 0.909,0.358 1.378,0.523 l 0.977,4.885 h 4.295 l 0.973,-4.885 c 0.465,-0.161 0.948,-0.301 1.378,-0.523 l 4.101,2.734 3.038,-3.035 -2.738,-4.101 c 0.229,-0.447 0.412,-0.909 0.573,-1.396 l 4.839,-0.97 0.004,-4.291 -4.842,-0.97 C 51.994,33.452 51.811,32.99 51.578,32.542 Z m -8.904,9.52 c -2.766,0 -5.01,-2.248 -5.01,-5.01 0,-2.763 2.244,-5.007 5.01,-5.007 2.766,0 5.01,2.244 5.01,5.007 0.001,2.763 -2.243,5.01 -5.01,5.01 z"
               id="path3715" />
          </g>
        </g>
        <g
           id="g3721"
           style="fill:#ffffff" />
        <g
           id="g3723"
           style="fill:#ffffff" />
        <g
           id="g3725"
           style="fill:#ffffff" />
        <g
           id="g3727"
           style="fill:#ffffff" />
        <g
           id="g3729"
           style="fill:#ffffff" />
        <g
           id="g3731"
           style="fill:#ffffff" />
        <g
           id="g3733"
           style="fill:#ffffff" />
        <g
           id="g3735"
           style="fill:#ffffff" />
        <g
           id="g3737"
           style="fill:#ffffff" />
        <g
           id="g3739"
           style="fill:#ffffff" />
        <g
           id="g3741"
           style="fill:#ffffff" />
        <g
           id="g3743"
           style="fill:#ffffff" />
        <g
           id="g3745"
           style="fill:#ffffff" />
        <g
           id="g3747"
           style="fill:#ffffff" />
        <g
           id="g3749"
           style="fill:#ffffff" />
      </g>
      <path
         transform="scale(0.26458333)"
         inkscape:connector-curvature="0"
         id="path3779"
         d="m 137.66418,617.85177 c -2.36136,-0.72457 -4.43198,-2.67099 -5.29488,-4.97732 -1.02734,-2.7458 -1.2673,-2.28318 6.05249,-11.66882 l 6.56599,-8.4191 0.001,-37.28921 c 9.5e-4,-25.50922 0.086,-37.59403 0.26933,-38.2541 0.30515,-1.09889 1.71775,-2.77793 2.867,-3.40774 0.72146,-0.39538 4.64009,-0.4256 55.19856,-0.4256 50.55847,0 54.4771,0.0302 55.19856,0.4256 1.14925,0.62981 2.56185,2.30885 2.867,3.40774 0.18329,0.66006 0.26838,12.73983 0.26934,38.23699 l 0.002,37.27209 6.64862,8.53489 6.64863,8.53489 -0.21624,1.37895 c -0.40218,2.5647 -2.05144,4.8704 -4.35242,6.08478 l -1.27882,0.67486 -65.40738,0.0424 c -35.97406,0.0233 -65.69148,-0.0448 -66.03872,-0.15131 z m 77.27667,-2.79529 c 0.60675,-0.60675 0.64106,-1.2087 0.11195,-1.96411 l -0.39313,-0.56127 h -11.34408 -11.34407 l -0.39615,0.60461 c -0.46017,0.7023 -0.28338,1.79922 0.34956,2.16886 0.24572,0.1435 4.90073,0.24475 11.4623,0.24931 10.71717,0.007 11.06369,-0.007 11.55362,-0.4974 z m 10.19261,-5.61897 c -0.10519,-0.17362 -1.02607,-1.36686 -2.04641,-2.65165 l -1.85515,-2.33598 H 203.32365 185.4154 l -1.34923,1.70463 c -0.74207,0.93755 -1.66953,2.13079 -2.06103,2.65165 l -0.71181,0.94702 h 22.01569 c 17.5462,0 21.97687,-0.0641 21.82444,-0.31567 z m 26.11441,-22.04601 c 1.2479,-0.5214 2.04738,-1.29079 2.61162,-2.51332 0.44512,-0.96446 0.46646,-2.40893 0.47176,-31.92948 l 0.006,-30.91932 -0.54147,-1.11853 c -0.35993,-0.74351 -0.92685,-1.36293 -1.69093,-1.8475 l -1.14948,-0.72897 h -47.56405 c -47.22076,0 -47.57128,0.004 -48.56387,0.51006 -0.5499,0.28054 -1.31245,0.98248 -1.69457,1.55987 l -0.69476,1.0498 -0.0748,30.95442 c -0.0519,21.49624 0.008,31.2403 0.19613,31.89005 0.36494,1.26045 1.40816,2.44678 2.64611,3.0091 0.97832,0.44439 2.96932,0.46382 48.06394,0.46914 41.89802,0.005 47.14565,-0.0372 47.9788,-0.38532 z"
         style="fill:#ffffff;stroke-width:0.25253814" />
      <path
         transform="scale(0.26458333)"
         inkscape:connector-curvature="0"
         id="path3781"
         d="m 199.58335,580.01682 c -0.13588,-0.65976 -0.50419,-2.60342 -0.81846,-4.31924 l -0.57142,-3.11968 -1.11743,-0.47899 c -0.61458,-0.26344 -1.20235,-0.47899 -1.30614,-0.47899 -0.10379,0 -1.69184,1.07048 -3.529,2.37883 l -3.34029,2.37883 -2.49101,-2.64235 -2.491,-2.64235 2.275,-3.6388 2.275,-3.6388 -0.49724,-1.33298 -0.49725,-1.33298 -4.07057,-0.86819 -4.07057,-0.86819 v -3.74069 c 0,-3.67249 0.0104,-3.74304 0.56821,-3.8702 0.31251,-0.0712 2.09886,-0.46425 3.96966,-0.87337 2.00989,-0.43954 3.51553,-0.89987 3.6803,-1.12521 0.15337,-0.20974 0.42265,-0.81707 0.59841,-1.34962 l 0.31956,-0.96828 -2.28354,-3.64625 -2.28354,-3.64626 1.80279,-1.9011 c 0.99154,-1.04561 2.11386,-2.23101 2.49406,-2.63423 l 0.69127,-0.73313 3.3967,2.42558 3.3967,2.42557 1.23175,-0.46672 1.23176,-0.46673 0.85,-4.44558 0.85,-4.44559 h 3.48041 3.4804 l 0.82794,4.40422 0.82794,4.40422 1.2402,0.51541 1.2402,0.5154 3.35282,-2.39424 c 1.84406,-1.31684 3.40347,-2.39425 3.46538,-2.39425 0.0619,0 1.20461,1.17437 2.53934,2.60971 l 2.42678,2.6097 -2.27968,3.6401 -2.27969,3.6401 0.44449,1.26321 c 0.24447,0.69476 0.46603,1.29251 0.49235,1.32833 0.0263,0.0358 1.62848,0.40532 3.56035,0.82111 1.93188,0.4158 3.7682,0.81482 4.08071,0.88671 0.5578,0.12832 0.56821,0.19926 0.56821,3.87139 v 3.74069 l -4.07057,0.86819 -4.07057,0.86819 -0.49725,1.33298 -0.49724,1.33298 2.275,3.6388 2.275,3.6388 -2.49304,2.64452 -2.49305,2.64451 -2.77258,-1.98477 c -4.34476,-3.11021 -3.83519,-2.88163 -5.27991,-2.36851 l -1.24617,0.44261 -0.56574,3.17301 c -0.31116,1.74516 -0.67725,3.71281 -0.81354,4.37257 l -0.24778,1.19955 h -3.49368 -3.49368 z m 7.3945,-16.20277 c 1.91431,-0.94242 2.9691,-2.07334 4.01165,-4.30122 0.67452,-1.44142 0.77163,-1.92315 0.76605,-3.80003 -0.009,-2.93442 -0.70115,-4.68724 -2.60288,-6.58897 -1.69935,-1.69935 -3.5742,-2.50518 -5.82858,-2.50518 -3.33442,0 -6.5928,2.25929 -7.83327,5.43143 -0.87206,2.23003 -0.84467,5.27502 0.0652,7.25494 0.85947,1.87015 1.72867,2.99477 2.9904,3.86915 2.64077,1.83005 5.56327,2.05185 8.43139,0.63988 z"
         style="fill:#ffffff;fill-opacity:1;stroke-width:0.25253814" />
      <path
         transform="scale(0.26458333)"
         inkscape:connector-curvature="0"
         id="path4588"
         d="m 136.73223,617.34288 c -2.37994,-1.08051 -4.69277,-4.22657 -4.69277,-6.38342 0,-1.24842 0.48409,-1.96029 7.31406,-10.75577 l 5.55251,-7.15039 0.15374,-37.73498 c 0.1714,-42.07152 -0.003,-38.48767 1.96813,-40.41256 0.97936,-0.95632 1.08715,-0.99517 3.21157,-1.15758 2.87021,-0.21942 103.29904,-0.21942 106.16925,0 2.12441,0.16241 2.2322,0.20126 3.21156,1.15758 1.94253,1.89683 1.77183,-1.6248 1.95704,40.37655 l 0.16645,37.74915 6.54491,8.41469 6.54491,8.41468 -0.16584,1.10592 c -0.38608,2.57453 -2.19324,5.10739 -4.46565,6.25891 l -1.2013,0.60874 -65.60518,-0.006 c -63.93799,-0.005 -65.63207,-0.0177 -66.66339,-0.48597 z m 78.15242,-2.17445 c 0.6357,-0.44526 0.73659,-1.50133 0.20973,-2.19539 -0.31082,-0.40945 -1.17616,-0.44194 -11.77029,-0.44194 -10.59413,0 -11.45947,0.0325 -11.77028,0.44194 -0.46333,0.61036 -0.43322,1.57462 0.0664,2.12669 0.39287,0.43412 1.0865,0.46183 11.56056,0.46183 9.67621,0 11.21648,-0.0517 11.70388,-0.39313 z m 10.06891,-5.60852 c 0.19143,-0.12247 -0.36518,-1.02243 -1.63764,-2.64778 l -1.92763,-2.46225 h -18.06543 -18.06543 l -1.95208,2.49906 c -1.07364,1.37449 -1.95208,2.56773 -1.95208,2.65165 0,0.22087 43.25457,0.18051 43.60029,-0.0407 z m 27.1608,-22.48476 c 0.51385,-0.31951 1.19571,-1.00136 1.51522,-1.51522 l 0.58095,-0.93429 0.0679,-31.37852 c 0.0675,-31.18347 0.0647,-31.38482 -0.4488,-32.3914 -0.28421,-0.55709 -0.98725,-1.35372 -1.56232,-1.7703 l -1.04558,-0.75742 -48.01424,0.0663 c -45.60825,0.063 -48.04873,0.0889 -48.70258,0.51737 -0.37859,0.24808 -1.02702,0.91857 -1.44095,1.48999 l -0.7526,1.03894 v 31.28495 c 0,26.04734 0.0584,31.42099 0.34869,32.09758 0.51595,1.20244 2.00208,2.50029 3.11158,2.71737 0.52753,0.10322 22.21023,0.17145 48.18378,0.15163 l 47.22463,-0.036 z"
         style="fill:#ffffff;fill-opacity:1;stroke-width:0.25253814" />
    </g>
  </g>
</svg>
